<svg version="1.1" xmlns="http://www.w3.org/2000/svg" viewBox="-1186.303982925415 -2955.2641235351557 4628.480078125 4358.144165039062"><desc>Created with Snap</desc><defs></defs><g><g transform="matrix(24.2612,0,0,24.2612,-85.1218,-3011.933)"><path d="M88.914,20c-0.804-3-4.389-4.678-7.318-4.832c-0.078-0.005-1.938-0.17-4.772-0.17C67.328,14.998,56.452,17,52.398,20H50  h-2.398c-4.054-3-14.951-5.002-24.446-5.002c-2.835,0-4.716,0.166-4.794,0.17C15.432,15.322,11.89,17,11.086,20c0,0-2.086,0-2.086,2  s0,55,0,57c0,3,3,3,3,3h30.803c0,0-0.011,0.022-0.011,0.044c0,2.062,3.209,3.721,7.208,3.778c3.999-0.058,7.208-1.717,7.208-3.778  c0-0.021-0.011-0.044-0.011-0.044H88c0,0,3,0,3-3c0-2,0-55,0-57S88.914,20,88.914,20z M47,79c-3-2.423-10.054-5.257-28.725-5.257  c-2.255,0-3.872-1.604-4.31-3.732c-0.054-0.308-0.104-46.521-0.051-46.835c0.442-2.173,2.166-3.895,4.441-4.014  c0.012-0.001,1.789-0.099,4.594-0.099c15.188,0,24.05,2.596,24.05,6.942V79z M86.034,70.011c-0.438,2.128-2.055,3.732-4.31,3.732  C63.054,73.743,56,76.577,53,79V26.004c0-4.347,8.862-6.942,24.05-6.942c2.805,0,4.582,0.098,4.594,0.099  c2.275,0.12,3.999,1.841,4.441,4.014C86.139,23.489,86.088,69.703,86.034,70.011z" fill="#6daedb" style=""></path><path d="M58,36.521c4.182-1.241,12.546-1.919,23-1.919V30c-8.363,0-15.682,0.627-23,2.101V36.521z" fill="#6daedb" style=""></path><path d="M58,51.224c4.182-1.242,12.546-1.92,23-1.92v-4.601c-8.363,0-15.682,0.626-23,2.101V51.224z" fill="#6daedb" style=""></path><path d="M58,65.925c4.182-1.24,12.546-1.92,23-1.92v-4.6c-8.363,0-15.682,0.626-23,2.101V65.925z" fill="#6daedb" style=""></path><path d="M19,34.602c10.454,0,18.818,0.679,23,1.919v-4.42C34.682,30.627,27.363,30,19,30V34.602z" fill="#6daedb" style=""></path><path d="M19,49.304c10.454,0,18.818,0.678,23,1.92v-4.42c-7.318-1.475-14.637-2.101-23-2.101V49.304z" fill="#6daedb" style=""></path><path d="M19,64.005c10.454,0,18.818,0.68,23,1.92v-4.419c-7.318-1.475-14.637-2.101-23-2.101V64.005z" fill="#6daedb" style=""></path><desc>Created with Snap</desc><defs></defs></g><g><g transform="matrix(1.024,0,0,-1.024,0,0)"><path d="M43 608L512 608Q538 608 538 584L538 502Q538 492 530 485Q522 479 511 479Q500 479 492 485Q484 492 484 502L484 561L156 561L156 329L438 329L438 366Q438 376 445 382Q453 389 464 389Q475 389 482 382Q490 376 490 366L490 244Q490 234 482 227Q475 221 464 221Q453 221 445 227Q438 234 438 244L438 282L156 282L156 47L511 47Q523 47 530 40Q538 34 538 24Q538 14 530 7Q522 0 511 0L127 0Q102 0 102 22L102 561L43 561Q33 561 26 567Q20 574 20 584Q20 594 26 601Q33 608 43 608ZM659 7Q652 0 641 0Q631 0 621 8Q612 17 612 27Q612 38 617 43L760 195L623 341Q616 348 618 358Q620 369 628 376Q637 384 647 384Q658 384 665 377L795 232L923 377Q930 384 940 384Q951 384 959 376Q968 369 970 358Q972 348 965 341L828 195L971 43Q976 38 976 27Q976 17 966 8Q957 0 946 0Q936 0 929 7L795 158L659 7ZM1322 136L1322 155Q1256 173 1209 173Q1163 173 1133 155Q1104 137 1104 104Q1104 72 1123 54Q1142 36 1175 36Q1267 36 1322 136ZM1402 47L1441 47Q1451 47 1457 40Q1464 33 1464 23Q1464 13 1457 6Q1451 0 1441 0L1397 0Q1361 0 1341 16Q1322 32 1322 61Q1322 66 1323 72Q1270 -10 1169 -10Q1113 -10 1081 20Q1050 50 1050 103Q1050 157 1092 187Q1135 218 1198 218Q1262 218 1322 197L1322 266Q1322 314 1287 328Q1260 338 1212 338Q1165 338 1125 322L1125 259Q1125 249 1117 242Q1109 236 1098 236Q1087 236 1079 242Q1071 249 1071 259L1071 335Q1071 348 1084 355Q1133 384 1214 384Q1295 384 1335 357Q1375 331 1375 266L1375 66Q1375 47 1402 47ZM2094 276L2094 66Q2094 47 2121 47L2160 47Q2170 47 2176 40Q2183 33 2183 23Q2183 13 2176 6Q2170 0 2160 0L2121 0Q2040 0 2040 65L2040 276Q2040 338 1982 338Q1904 338 1853 251L1853 13Q1853 3 1845 -4Q1837 -10 1826 -10Q1815 -10 1807 -4Q1799 3 1799 13L1799 276Q1799 338 1741 338Q1696 338 1665 315Q1635 292 1607 243L1607 13Q1607 3 1599 -4Q1591 -10 1580 -10Q1569 -10 1561 -4Q1553 3 1553 13L1553 308Q1553 327 1534 327L1487 327Q1477 327 1470 333Q1464 340 1464 350Q1464 360 1470 367Q1477 374 1487 374L1541 374Q1603 374 1603 306Q1634 346 1665 365Q1697 384 1742 384Q1828 384 1848 312Q1878 348 1909 366Q1940 384 1987 384Q2034 384 2064 356Q2094 329 2094 276Z" fill="#6daedb" style=""></path></g></g><g transform="matrix(1,0,0,1,-928.256,1085.4401)"><g transform="matrix(1.024,0,0,-1.024,0,0)"><path d="M102 138L102 69Q169 37 272 37Q375 37 427 69Q479 102 479 161Q479 221 430 250Q381 279 274 299Q167 320 113 354Q60 388 60 461Q60 618 293 618Q417 618 498 573Q513 564 513 552L513 470Q513 460 505 453Q497 447 486 447Q475 447 467 453Q459 460 459 470L459 539Q390 571 295 571Q201 571 157 544Q114 517 114 461Q114 408 170 382Q208 363 272 349Q337 336 364 329Q391 322 427 307Q463 293 483 275Q503 257 518 227Q533 198 533 160Q533 82 467 36Q402 -10 280 -10Q224 -10 159 2Q94 15 61 36Q48 44 48 56L48 138Q48 148 56 154Q64 161 75 161Q86 161 94 154Q102 148 102 138ZM924 96Q932 108 940 108Q949 108 958 104Q972 98 972 87Q972 77 969 72Q918 -10 807 -10Q722 -10 671 47Q620 105 620 189Q620 273 673 328Q727 384 806 384Q886 384 945 347Q957 339 957 328L957 244Q957 234 949 227Q941 221 930 221Q919 221 911 227Q903 234 903 244L903 315Q863 338 807 338Q751 338 712 296Q673 254 673 187Q673 121 710 78Q748 36 807 36Q885 36 924 96ZM1129 242L1129 13Q1129 3 1121 -4Q1113 -10 1102 -10Q1091 -10 1083 -4Q1075 3 1075 13L1075 703L1009 703Q999 703 992 709Q986 716 986 726Q986 736 992 743Q999 750 1009 750L1103 750Q1113 750 1121 743Q1129 736 1129 726L1129 307Q1191 386 1276 386Q1332 386 1365 357Q1399 329 1399 278L1399 65Q1399 47 1426 47L1465 47Q1475 47 1481 40Q1488 33 1488 23Q1488 13 1481 6Q1475 0 1465 0L1426 0Q1345 0 1345 65L1345 278Q1345 340 1276 340Q1184 340 1129 242ZM1835 220Q1832 274 1803 306Q1775 338 1721 338Q1668 338 1632 305Q1596 273 1587 220L1835 220ZM1837 96Q1844 108 1853 108Q1862 108 1871 103Q1880 99 1883 89Q1887 80 1882 72Q1831 -10 1720 -10Q1632 -10 1581 46Q1531 103 1531 189Q1531 275 1583 329Q1635 384 1720 384Q1805 384 1846 333Q1888 282 1888 197Q1888 174 1862 174L1585 173Q1589 111 1625 73Q1662 36 1720 36Q1798 36 1837 96ZM2149 338Q2092 338 2058 297Q2024 256 2024 186Q2024 116 2057 76Q2091 36 2149 36Q2233 36 2283 131L2283 278Q2257 303 2220 320Q2184 338 2149 338ZM2283 331L2283 703L2217 703Q2207 703 2200 709Q2194 716 2194 726Q2194 736 2200 743Q2207 750 2217 750L2310 750Q2321 750 2329 743Q2337 736 2337 726L2337 66Q2337 47 2357 47L2403 47Q2413 47 2419 40Q2426 34 2426 24Q2426 14 2419 7Q2413 0 2403 0L2350 0Q2285 0 2287 71Q2265 37 2229 13Q2194 -10 2149 -10Q2060 -10 2015 47Q1971 104 1971 188Q1971 272 2017 328Q2064 384 2145 384Q2226 384 2283 331ZM2868 47L2915 47Q2925 47 2931 40Q2938 34 2938 24Q2938 14 2931 7Q2925 0 2915 0L2861 0Q2799 0 2799 68Q2739 -10 2648 -10Q2594 -10 2559 17Q2525 45 2525 98L2525 308Q2525 327 2498 327L2459 327Q2449 327 2442 334Q2436 341 2436 351Q2436 361 2442 367Q2449 374 2459 374L2498 374Q2579 374 2579 309L2579 98Q2579 68 2597 52Q2616 36 2649 36Q2741 36 2795 132L2795 361Q2795 371 2803 377Q2811 384 2822 384Q2833 384 2841 377Q2849 371 2849 361L2849 66Q2849 47 2868 47ZM3097 47L3136 47Q3146 47 3152 40Q3159 33 3159 23Q3159 13 3152 6Q3146 0 3136 0L3097 0Q3016 0 3016 65L3016 703L2950 703Q2940 703 2933 709Q2927 716 2927 726Q2927 736 2933 743Q2940 750 2950 750L3043 750Q3054 750 3062 743Q3070 736 3070 726L3070 66Q3070 47 3097 47ZM3516 220Q3513 274 3484 306Q3456 338 3402 338Q3349 338 3313 305Q3277 273 3268 220L3516 220ZM3518 96Q3525 108 3534 108Q3543 108 3552 103Q3561 99 3564 89Q3568 80 3563 72Q3512 -10 3401 -10Q3313 -10 3262 46Q3212 103 3212 189Q3212 275 3264 329Q3316 384 3401 384Q3486 384 3527 333Q3569 282 3569 197Q3569 174 3543 174L3266 173Q3270 111 3306 73Q3343 36 3401 36Q3479 36 3518 96ZM3639 374L3690 374Q3753 374 3755 306Q3809 384 3883 384Q3925 384 3954 368Q3968 360 3968 347L3968 263Q3968 253 3960 246Q3952 240 3941 240Q3930 240 3922 246Q3914 253 3914 263L3914 333Q3901 338 3875 338Q3849 338 3816 313Q3783 289 3759 241L3759 13Q3759 3 3751 -4Q3743 -10 3732 -10Q3721 -10 3713 -4Q3705 3 3705 13L3705 308Q3705 327 3685 327L3639 327Q3629 327 3622 333Q3616 340 3616 350Q3616 360 3622 367Q3629 374 3639 374Z" fill="#6daedb" style=""></path></g></g></g></svg>